<?xml version="1.0" encoding="iso-8859-1"?>
<!-- Uploaded to: SVG Repo, www.svgrepo.com, Generator: SVG Repo Mixer Tools -->
<svg fill="#000000" height="800px" width="800px" version="1.1" id="Layer_1" xmlns="http://www.w3.org/2000/svg" xmlns:xlink="http://www.w3.org/1999/xlink" 
	 viewBox="0 0 512 512" xml:space="preserve">
<g>
	<g>
		<path d="M79.117,87.515v68.101c0,7.125-3.145,13.524-8.116,17.897V87.515H39.559v85.997c-4.971-4.372-8.117-10.773-8.117-17.897
			V87.515H0v68.101c0,25.02,16.713,46.199,39.559,52.989v22.031c4.97-1.545,10.25-2.379,15.721-2.379
			c5.471,0.001,10.751,0.834,15.721,2.379v-22.032c22.845-6.79,39.558-27.968,39.558-52.989v-68.1H79.117z"/>
	</g>
</g>
<g>
	<g>
		<path d="M490.471,103.237c-11.89,0-21.529,9.639-21.529,21.529v92.985c0,5.216,1.856,9.997,4.943,13.723
			c5.221-1.726,10.794-2.675,16.588-2.675c5.79,0,11.364,0.947,16.586,2.675c3.087-3.726,4.943-8.507,4.943-13.723v-92.985
			C512,112.876,502.361,103.237,490.471,103.237z"/>
	</g>
</g>
<g>
	<g>
		<path d="M55.279,259.699c-11.93,0-21.6,9.67-21.6,21.6v121.585c0,11.93,9.67,21.6,21.6,21.6c11.93,0,21.6-9.67,21.6-21.6V281.3
			C76.88,269.37,67.209,259.699,55.279,259.699z"/>
	</g>
</g>
<g>
	<g>
		<path d="M490.47,260.241c-11.89,0-21.529,9.639-21.529,21.529v121.185c0,11.89,9.639,21.529,21.529,21.529
			c11.89,0,21.529-9.639,21.529-21.529V281.77C512,269.88,502.36,260.241,490.47,260.241z"/>
	</g>
</g>
<g>
	<g>
		<path d="M272.84,157.482c-54.323,0-98.517,44.194-98.517,98.517c0,54.323,44.194,98.517,98.517,98.517
			s98.517-44.195,98.517-98.517S327.161,157.482,272.84,157.482z"/>
	</g>
</g>
<g>
	<g>
		<path d="M440.113,244.637c-0.462-6.878-1.343-13.644-2.614-20.274C422.663,146.987,354.478,88.333,272.84,88.333
			c-92.451,0-167.667,75.215-167.667,167.666c0,7.81,0.549,15.493,1.588,23.023c0.385,2.792,0.839,5.562,1.36,8.309
			c14.716,77.528,82.974,136.334,164.718,136.334c82.737,0,151.658-60.24,165.231-139.162c0.07-0.411,0.137-0.824,0.205-1.236
			c1.459-8.877,2.23-17.984,2.23-27.268C440.506,252.18,440.365,248.394,440.113,244.637z M272.84,385.959
			c-71.66,0-129.959-58.299-129.959-129.959S201.18,126.04,272.84,126.04s129.959,58.299,129.959,129.959
			S344.5,385.959,272.84,385.959z"/>
	</g>
</g>
</svg>